<mxfile host="app.diagrams.net" modified="2023-05-26T07:20:39.447Z" agent="Mozilla/5.0 (Macintosh; Intel Mac OS X 10_15_7) AppleWebKit/537.36 (KHTML, like Gecko) Chrome/113.0.0.0 Safari/537.36" etag="mhOXItvrprl_Vht4wo-k" version="21.3.4" type="device">
  <diagram name="ページ1" id="f7V_g5PhUMW6J_df7KxU">
    <mxGraphModel dx="1243" dy="872" grid="1" gridSize="10" guides="1" tooltips="1" connect="1" arrows="1" fold="1" page="1" pageScale="1" pageWidth="827" pageHeight="1169" background="#ffffff" math="0" shadow="0">
      <root>
        <mxCell id="0" />
        <mxCell id="1" parent="0" />
        <mxCell id="2O8WGX2i6UkIXGazLuS_-1" value="assigned_work" style="rounded=0;whiteSpace=wrap;html=1;strokeColor=#36393D;fillColor=#ffcccc;fontColor=#1A1A1A;strokeWidth=2;" vertex="1" parent="1">
          <mxGeometry x="240" y="40" width="120" height="30" as="geometry" />
        </mxCell>
        <mxCell id="2O8WGX2i6UkIXGazLuS_-3" value="id&lt;br&gt;user_id&lt;br&gt;shift_id&lt;br&gt;assigned_time" style="rounded=0;whiteSpace=wrap;html=1;fillColor=none;labelBackgroundColor=none;strokeColor=#1A1A1A;strokeWidth=2;fontColor=#1A1A1A;fontStyle=0;align=left;labelPosition=center;verticalLabelPosition=middle;verticalAlign=middle;horizontal=1;" vertex="1" parent="1">
          <mxGeometry x="240" y="70" width="120" height="90" as="geometry" />
        </mxCell>
        <mxCell id="2O8WGX2i6UkIXGazLuS_-4" value="shift" style="rounded=0;whiteSpace=wrap;html=1;strokeColor=#36393D;fillColor=#99CCFF;fontColor=#1A1A1A;strokeWidth=2;" vertex="1" parent="1">
          <mxGeometry x="480" y="40" width="120" height="30" as="geometry" />
        </mxCell>
        <mxCell id="2O8WGX2i6UkIXGazLuS_-5" value="id&lt;br&gt;duty_on&lt;br&gt;started_at&lt;br&gt;job&lt;br&gt;assigned_user&lt;br&gt;status" style="rounded=0;whiteSpace=wrap;html=1;fillColor=none;labelBackgroundColor=none;strokeColor=#1A1A1A;strokeWidth=2;fontColor=#1A1A1A;fontStyle=0;align=left;labelPosition=center;verticalLabelPosition=middle;verticalAlign=middle;horizontal=1;" vertex="1" parent="1">
          <mxGeometry x="480" y="70" width="120" height="90" as="geometry" />
        </mxCell>
        <mxCell id="2O8WGX2i6UkIXGazLuS_-7" value="comment" style="rounded=0;whiteSpace=wrap;html=1;strokeColor=#36393D;fillColor=#99CCFF;fontColor=#1A1A1A;strokeWidth=2;" vertex="1" parent="1">
          <mxGeometry x="480" y="280" width="120" height="30" as="geometry" />
        </mxCell>
        <mxCell id="2O8WGX2i6UkIXGazLuS_-8" value="id&lt;br&gt;shift_id (FK)&lt;br&gt;user_id (FK)&lt;br&gt;-----------------&lt;br&gt;content" style="rounded=0;whiteSpace=wrap;html=1;fillColor=none;labelBackgroundColor=none;strokeColor=#1A1A1A;strokeWidth=2;fontColor=#1A1A1A;fontStyle=0;align=left;labelPosition=center;verticalLabelPosition=middle;verticalAlign=middle;horizontal=1;" vertex="1" parent="1">
          <mxGeometry x="480" y="310" width="120" height="90" as="geometry" />
        </mxCell>
        <mxCell id="2O8WGX2i6UkIXGazLuS_-11" value="user" style="rounded=0;whiteSpace=wrap;html=1;strokeColor=#36393D;fillColor=#99CCFF;fontColor=#1A1A1A;strokeWidth=2;" vertex="1" parent="1">
          <mxGeometry x="240" y="280" width="120" height="30" as="geometry" />
        </mxCell>
        <mxCell id="2O8WGX2i6UkIXGazLuS_-12" value="id&lt;br&gt;name&lt;br&gt;password&lt;br&gt;email&lt;br&gt;number&lt;br&gt;admin" style="rounded=0;whiteSpace=wrap;html=1;fillColor=none;labelBackgroundColor=none;strokeColor=#1A1A1A;strokeWidth=2;fontColor=#1A1A1A;fontStyle=0;align=left;labelPosition=center;verticalLabelPosition=middle;verticalAlign=middle;horizontal=1;" vertex="1" parent="1">
          <mxGeometry x="240" y="310" width="120" height="110" as="geometry" />
        </mxCell>
        <mxCell id="2O8WGX2i6UkIXGazLuS_-13" value="request-shift" style="rounded=0;whiteSpace=wrap;html=1;strokeColor=#36393D;fillColor=#99CCFF;fontColor=#1A1A1A;strokeWidth=2;" vertex="1" parent="1">
          <mxGeometry y="280" width="120" height="30" as="geometry" />
        </mxCell>
        <mxCell id="2O8WGX2i6UkIXGazLuS_-14" value="id&lt;br&gt;user_id (FK)&lt;br&gt;----------------&lt;br&gt;worked_on&lt;br&gt;atar_work_at&lt;br&gt;end_work_at&lt;br&gt;work_job&lt;br&gt;created_at" style="rounded=0;whiteSpace=wrap;html=1;fillColor=none;labelBackgroundColor=none;strokeColor=#1A1A1A;strokeWidth=2;fontColor=#1A1A1A;fontStyle=0;align=left;labelPosition=center;verticalLabelPosition=middle;verticalAlign=middle;horizontal=1;" vertex="1" parent="1">
          <mxGeometry y="310" width="120" height="140" as="geometry" />
        </mxCell>
        <mxCell id="2O8WGX2i6UkIXGazLuS_-24" value="" style="fontSize=12;html=1;endArrow=ERzeroToMany;rounded=0;strokeColor=#1A1A1A;exitX=0.5;exitY=0;exitDx=0;exitDy=0;entryX=0.5;entryY=1;entryDx=0;entryDy=0;endFill=0;startArrow=ERone;startFill=0;strokeWidth=3;sourcePerimeterSpacing=0;targetPerimeterSpacing=0;endSize=10;startSize=10;" edge="1" parent="1" source="2O8WGX2i6UkIXGazLuS_-11" target="2O8WGX2i6UkIXGazLuS_-3">
          <mxGeometry width="100" height="100" relative="1" as="geometry">
            <mxPoint x="300" y="270" as="sourcePoint" />
            <mxPoint x="300" y="170" as="targetPoint" />
          </mxGeometry>
        </mxCell>
        <mxCell id="2O8WGX2i6UkIXGazLuS_-25" value="" style="fontSize=12;html=1;endArrow=ERzeroToMany;rounded=0;strokeColor=#1A1A1A;exitX=0;exitY=0.455;exitDx=0;exitDy=0;endFill=0;startArrow=ERone;startFill=0;strokeWidth=3;sourcePerimeterSpacing=0;targetPerimeterSpacing=0;endSize=10;startSize=10;exitPerimeter=0;" edge="1" parent="1" source="2O8WGX2i6UkIXGazLuS_-12">
          <mxGeometry width="100" height="100" relative="1" as="geometry">
            <mxPoint x="220" y="370" as="sourcePoint" />
            <mxPoint x="120" y="360" as="targetPoint" />
          </mxGeometry>
        </mxCell>
        <mxCell id="2O8WGX2i6UkIXGazLuS_-26" value="" style="fontSize=12;html=1;endArrow=ERzeroToMany;rounded=0;strokeColor=#1A1A1A;exitX=0;exitY=0.455;exitDx=0;exitDy=0;endFill=0;startArrow=ERone;startFill=0;strokeWidth=3;sourcePerimeterSpacing=0;targetPerimeterSpacing=0;endSize=10;startSize=10;exitPerimeter=0;" edge="1" parent="1">
          <mxGeometry width="100" height="100" relative="1" as="geometry">
            <mxPoint x="360" y="358.41" as="sourcePoint" />
            <mxPoint x="480" y="358.41" as="targetPoint" />
          </mxGeometry>
        </mxCell>
        <mxCell id="2O8WGX2i6UkIXGazLuS_-27" value="" style="fontSize=12;html=1;endArrow=ERzeroToMany;rounded=0;strokeColor=#1A1A1A;exitX=0;exitY=0.455;exitDx=0;exitDy=0;endFill=0;startArrow=ERone;startFill=0;strokeWidth=3;sourcePerimeterSpacing=0;targetPerimeterSpacing=0;endSize=10;startSize=10;exitPerimeter=0;" edge="1" parent="1">
          <mxGeometry width="100" height="100" relative="1" as="geometry">
            <mxPoint x="480" y="110" as="sourcePoint" />
            <mxPoint x="360" y="110" as="targetPoint" />
          </mxGeometry>
        </mxCell>
        <mxCell id="2O8WGX2i6UkIXGazLuS_-28" value="" style="fontSize=12;html=1;endArrow=ERzeroToMany;rounded=0;strokeColor=#1A1A1A;exitX=0.5;exitY=1;exitDx=0;exitDy=0;endFill=0;startArrow=ERone;startFill=0;strokeWidth=3;sourcePerimeterSpacing=0;targetPerimeterSpacing=0;endSize=10;startSize=10;entryX=0.5;entryY=0;entryDx=0;entryDy=0;" edge="1" parent="1" source="2O8WGX2i6UkIXGazLuS_-5" target="2O8WGX2i6UkIXGazLuS_-7">
          <mxGeometry width="100" height="100" relative="1" as="geometry">
            <mxPoint x="460" y="230" as="sourcePoint" />
            <mxPoint x="580" y="230" as="targetPoint" />
          </mxGeometry>
        </mxCell>
      </root>
    </mxGraphModel>
  </diagram>
</mxfile>
